<svg id="Layer_1" data-name="Layer 1" xmlns="http://www.w3.org/2000/svg" viewBox="0 0 900 476.15"><defs><style>.cls-1{fill:#ff1b00;}.cls-2{fill:#909090;}.cls-3{fill:#ed1c24;}.cls-10,.cls-11,.cls-12,.cls-13,.cls-14,.cls-15,.cls-16,.cls-17,.cls-18,.cls-19,.cls-20,.cls-21,.cls-22,.cls-23,.cls-24,.cls-25,.cls-26,.cls-27,.cls-28,.cls-29,.cls-30,.cls-31,.cls-32,.cls-33,.cls-34,.cls-35,.cls-36,.cls-4,.cls-5,.cls-6,.cls-7,.cls-8,.cls-9{fill:none;stroke-linecap:round;stroke-linejoin:round;}.cls-10,.cls-11,.cls-12,.cls-13,.cls-14,.cls-15,.cls-28,.cls-30,.cls-31,.cls-32,.cls-33,.cls-34,.cls-35,.cls-36,.cls-4,.cls-5,.cls-6,.cls-7,.cls-8,.cls-9{stroke:#909090;}.cls-4{stroke-width:3.1px;}.cls-5{stroke-width:2.63px;}.cls-6{stroke-width:2.17px;}.cls-7{stroke-width:1.7px;}.cls-8{stroke-width:3.57px;}.cls-9{stroke-width:4.03px;}.cls-10{stroke-width:4.5px;}.cls-11{stroke-width:4.96px;}.cls-12{stroke-width:5.43px;}.cls-13{stroke-width:5.89px;}.cls-14{stroke-width:6.36px;}.cls-15{stroke-width:6.83px;}.cls-16,.cls-17,.cls-18,.cls-19,.cls-20,.cls-21,.cls-22,.cls-23,.cls-24,.cls-25,.cls-26,.cls-27,.cls-29{stroke:#ed1c24;}.cls-16{stroke-width:2.4px;}.cls-17{stroke-width:2.87px;}.cls-18{stroke-width:3.33px;}.cls-19{stroke-width:3.8px;}.cls-20{stroke-width:4.26px;}.cls-21{stroke-width:4.73px;}.cls-22{stroke-width:5.2px;}.cls-23{stroke-width:5.66px;}.cls-24{stroke-width:6.13px;}.cls-25{stroke-width:6.59px;}.cls-26{stroke-width:7.06px;}.cls-27{stroke-width:1.94px;}.cls-28{stroke-width:1.24px;}.cls-29{stroke-width:1.47px;}.cls-30{stroke-width:1.75px;}.cls-31{stroke-width:1.46px;}.cls-32{stroke-width:1.31px;}.cls-33{stroke-width:1.16px;}.cls-34{stroke-width:1.09px;}.cls-35{stroke-width:0.95px;}.cls-36{stroke-width:0.73px;}</style></defs><title>logo_main</title><path class="cls-1" d="M2.05,12.15A5.52,5.52,0,0,1,3.3,8.34,4.7,4.7,0,0,1,7,6.92H80.45a55.29,55.29,0,0,1,21.93,4.37,57.31,57.31,0,0,1,17.84,11.88,55.58,55.58,0,0,1,12,17.55,53.26,53.26,0,0,1,4.37,21.42,50.91,50.91,0,0,1-2.1,14.72,54.7,54.7,0,0,1-5.85,13.06,55.72,55.72,0,0,1-8.92,11,58.74,58.74,0,0,1-11.31,8.46l29.2,55c.53,1.06,1.22,2.31,2.05,3.75a7.83,7.83,0,0,1,1.25,3.75,3.38,3.38,0,0,1-1.19,2.78,5,5,0,0,1-3.24,1h-39A5.64,5.64,0,0,1,94,174.52a5.17,5.17,0,0,1-2-3.07L64.43,119.52H46v51.25q0,4.89-5.23,4.89H7a5.3,5.3,0,0,1-3.63-1.2,4.63,4.63,0,0,1-1.36-3.69ZM91,62.6a19.73,19.73,0,0,0-1.25-6.82,22.19,22.19,0,0,0-3.53-6.25,20.65,20.65,0,0,0-5.45-4.77,18.64,18.64,0,0,0-7-2.5c-2.13-.15-4.12-.29-6-.4s-3.88-.17-6.08-.17H46v41.7H66.93c1.36,0,2.57,0,3.63-.11s2.24-.19,3.53-.34a18,18,0,0,0,7.15-2.33A18.65,18.65,0,0,0,86.58,76a20.67,20.67,0,0,0,3.3-6.25A22.59,22.59,0,0,0,91,62.6Z" transform="translate(0 0)"/><path class="cls-1" d="M161.58,12.15a5.4,5.4,0,0,1,1.3-3.81,4.77,4.77,0,0,1,3.7-1.42H242a47.43,47.43,0,0,1,18.86,3.8A49.17,49.17,0,0,1,276.4,21.18a49.79,49.79,0,0,1,10.51,15.57,47.68,47.68,0,0,1,3.86,19.14,45.94,45.94,0,0,1-2.67,15.85,43.22,43.22,0,0,1-7.55,13.13,55.4,55.4,0,0,1,12.95,17.84,51.71,51.71,0,0,1,4.77,21.93,49.2,49.2,0,0,1-4,19.6,53.86,53.86,0,0,1-10.74,16.25,51.07,51.07,0,0,1-15.8,11.08,45.69,45.69,0,0,1-19,4.09H166.58a5.31,5.31,0,0,1-3.64-1.2,4.63,4.63,0,0,1-1.36-3.69Zm85.56,44.76a16.21,16.21,0,0,0-1.25-6.36,16.29,16.29,0,0,0-9-8.8,18.22,18.22,0,0,0-6.95-1.31H205.55v33h24a20.57,20.57,0,0,0,7.12-1.19,15.46,15.46,0,0,0,5.53-3.41,16.2,16.2,0,0,0,3.59-5.23A16.51,16.51,0,0,0,247.14,56.91Zm6,66a18.71,18.71,0,0,0-1.31-6.81,20.08,20.08,0,0,0-3.64-6.08,19.36,19.36,0,0,0-5.58-4.38,14.94,14.94,0,0,0-7-1.7H205.55v38h30.07a15.36,15.36,0,0,0,6.95-1.59,18.42,18.42,0,0,0,5.58-4.26,19.79,19.79,0,0,0,5-13.13Z" transform="translate(0 0)"/><path class="cls-1" d="M450.65,19.19a7.18,7.18,0,0,1,2.84,2.95,4.72,4.72,0,0,1-.34,4.32L433.94,53.73A4.46,4.46,0,0,1,431.27,56a5,5,0,0,1-3.46-1,43.43,43.43,0,0,0-12.27-6.47,43.9,43.9,0,0,0-14.21-2.28,41.22,41.22,0,0,0-30.68,13.18,44.76,44.76,0,0,0-8.86,14.32,47.91,47.91,0,0,0-3.18,17.5,47.4,47.4,0,0,0,3.18,17.44,44.14,44.14,0,0,0,8.86,14.21,41.81,41.81,0,0,0,13.52,9.6A41.38,41.38,0,0,0,401.33,136a44.17,44.17,0,0,0,26.7-8.86,5.23,5.23,0,0,1,3.41-1,4.7,4.7,0,0,1,2.73,2l19.43,28c.83,1.67.95,3.07.34,4.21a7.37,7.37,0,0,1-2.84,2.84,90.5,90.5,0,0,1-23,11.08,85.26,85.26,0,0,1-26,3.92,86.35,86.35,0,0,1-61.42-25.4,87.9,87.9,0,0,1-13.58-17.5,84.9,84.9,0,0,1-8.75-20.68,87.14,87.14,0,0,1,8.75-67,87.83,87.83,0,0,1,13.58-17.67,84.69,84.69,0,0,1,17.56-13.58A89.23,89.23,0,0,1,379,7.54a88.19,88.19,0,0,1,48.86.68A88.68,88.68,0,0,1,450.65,19.19Z" transform="translate(0 0)"/><path class="cls-1" d="M147.94,293.72a83.91,83.91,0,0,1-3.06,22.89,82.12,82.12,0,0,1-8.75,20.23,84.12,84.12,0,0,1-31.08,29.94A87.94,87.94,0,0,1,84.31,375a91.25,91.25,0,0,1-23.06,2.9h-56A7.26,7.26,0,0,1,1.59,377Q0,376.1,0,373.14V214.4a5.62,5.62,0,0,1,1.31-3.86,5,5,0,0,1,3.92-1.48h56a89,89,0,0,1,23,3,87.22,87.22,0,0,1,20.68,8.41,88.38,88.38,0,0,1,17.55,13.06,80.91,80.91,0,0,1,13.58,17,85.41,85.41,0,0,1,8.75,20.34A82.62,82.62,0,0,1,147.94,293.72ZM44,249.86v87.38h9.55c1.74,0,3.45-.06,5.11-.17s3.33-.25,5-.4a45.83,45.83,0,0,0,15.91-4.15,44.24,44.24,0,0,0,12.9-9.09,40.83,40.83,0,0,0,8.63-13.24,43.11,43.11,0,0,0,3.13-16.59,42.63,42.63,0,0,0-3.58-17.55,43.27,43.27,0,0,0-24.09-23A47.75,47.75,0,0,0,59,249.86Z" transform="translate(0 0)"/><path class="cls-1" d="M192.26,323.37c1.29,1.07,2.93,2.49,4.94,4.27a66.17,66.17,0,0,0,6.88,5.28,57.37,57.37,0,0,0,11.47,6,33.32,33.32,0,0,0,11.93,2.16,30.79,30.79,0,0,0,9.72-1.31,16.19,16.19,0,0,0,6.19-3.46,12.18,12.18,0,0,0,3.24-5,18.71,18.71,0,0,0,1-6,8.85,8.85,0,0,0-2.67-6.3,27.78,27.78,0,0,0-6.54-4.94,54.93,54.93,0,0,0-8.06-3.69c-2.81-1-5.23-1.87-7.28-2.55a166.64,166.64,0,0,1-23.86-10.28,73.45,73.45,0,0,1-17-12.26,45.78,45.78,0,0,1-10.23-14.87,46.39,46.39,0,0,1-3.41-18.11,42.75,42.75,0,0,1,4.26-19.19,42.14,42.14,0,0,1,12.16-14.76,57.93,57.93,0,0,1,19-9.48,86.39,86.39,0,0,1,24.89-3.35,83.09,83.09,0,0,1,19.83,2.33,75.47,75.47,0,0,1,18.69,7.44q3.86,2.28,7.33,4.72c2.31,1.63,4.33,3.2,6.08,4.71a29.07,29.07,0,0,1,4.14,4.32,6.26,6.26,0,0,1,1.54,3.52,5.28,5.28,0,0,1-.74,2.73,16.64,16.64,0,0,1-2.22,2.84l-17.38,18.52a5.58,5.58,0,0,1-3.87,1.94,5,5,0,0,1-2.89-.91c-.87-.61-1.84-1.37-2.9-2.28l-1-.9c-1.52-1.29-3.2-2.62-5.06-4a43.75,43.75,0,0,0-6-3.69,40.3,40.3,0,0,0-6.71-2.73,24.28,24.28,0,0,0-7.16-1.08,38.27,38.27,0,0,0-7,.62,19.81,19.81,0,0,0-5.8,2,11,11,0,0,0-4,3.58,10.46,10.46,0,0,0,.11,10.91,15.86,15.86,0,0,0,4.77,4.32,44.72,44.72,0,0,0,7.9,3.75q4.71,1.76,11,3.8,12,4,22.22,8.36a74.35,74.35,0,0,1,17.55,10.34A42.66,42.66,0,0,1,288.79,305q4.14,8.29,4.14,20.11a49.74,49.74,0,0,1-5.11,22.67,52,52,0,0,1-14,17.33,65.55,65.55,0,0,1-21,11.07,83,83,0,0,1-25.9,3.93,73.26,73.26,0,0,1-25.68-4.68,98.44,98.44,0,0,1-23.52-12.53,60.11,60.11,0,0,1-7.67-6.5c-2.09-2.13-3.74-3.83-5-5.13l-.34-.34a.56.56,0,0,0-.23-.28.87.87,0,0,1-.22-.18.69.69,0,0,0-.23-.28.85.85,0,0,1-.23-.17q-2.61-2.85-2.61-4.56,0-1.94,2.61-4.33l19.66-18.75a7.35,7.35,0,0,1,3.86-1.7,4.15,4.15,0,0,1,2.16.68A20.27,20.27,0,0,1,192.26,323.37Z" transform="translate(0 0)"/><path class="cls-1" d="M368.38,213.61a3.37,3.37,0,0,1,.74-1.48,8.63,8.63,0,0,1,1.53-1.48,8,8,0,0,1,1.94-1.07,5.21,5.21,0,0,1,1.93-.4h29.09a4.86,4.86,0,0,1,3.29,1.19,15.57,15.57,0,0,1,2.05,2.1l2.84,6.48L471.44,372.8a3.34,3.34,0,0,1-.34,3.7c-.83.94-2.27,1.42-4.31,1.42H434.17a7.16,7.16,0,0,1-4-1,6.2,6.2,0,0,1-2.22-3.24q-2.26-5.79-4.43-11.53t-4.32-11.53H358.84q-2.16,5.79-4.38,11.53t-4.37,11.53a5.69,5.69,0,0,1-5.8,4.21H310.77a5.54,5.54,0,0,1-3.58-1.14c-.95-.76-1.12-1.89-.51-3.41Zm20.68,48.63q-2.16,5.81-4.37,12.5t-4.38,13.52q-2.16,6.83-4.37,13.47t-4.38,12.44h34.89Z" transform="translate(0 0)"/><path class="cls-1" d="M494.51,214.18a5.26,5.26,0,0,1,1.25-3.53,4.64,4.64,0,0,1,3.75-1.47h33.4a6.39,6.39,0,0,1,3.64,1.36,4.24,4.24,0,0,1,1.93,3.64V372.92q0,5-5.57,5h-33.4c-3.34,0-5-1.67-5-5Z" transform="translate(0 0)"/><path class="cls-2" d="M2.77,405.65a.89.89,0,0,1,.2-.6.78.78,0,0,1,.59-.22H15.05a8.8,8.8,0,0,1,8.11,5.3,8.27,8.27,0,0,1,.69,3.35,8,8,0,0,1-.33,2.31,8.72,8.72,0,0,1-2.32,3.77,9.11,9.11,0,0,1-1.77,1.33L24,429.5c.08.17.19.36.32.59a1.19,1.19,0,0,1,.19.58.54.54,0,0,1-.18.44.81.81,0,0,1-.51.15H17.72a.88.88,0,0,1-.54-.18.83.83,0,0,1-.31-.48l-4.33-8.13H9.66v8c0,.51-.27.76-.82.76H3.56a.85.85,0,0,1-.57-.18.75.75,0,0,1-.22-.58Zm13.94,7.9a3.06,3.06,0,0,0-.2-1.06,3.26,3.26,0,0,0-.55-1,3.21,3.21,0,0,0-.85-.75,2.94,2.94,0,0,0-1.11-.39l-.93-.06c-.29,0-.61,0-1,0H9.66v6.53h3.28l.57,0,.55-.05a2.91,2.91,0,0,0,2-1.1,3.33,3.33,0,0,0,.51-1A3.59,3.59,0,0,0,16.71,413.55Z" transform="translate(0 0)"/><path class="cls-2" d="M28.54,418.07a13.62,13.62,0,0,1,1.86-6.87,13.44,13.44,0,0,1,4.88-4.9,14,14,0,0,1,3.25-1.37,13.08,13.08,0,0,1,3.62-.49,13.23,13.23,0,0,1,3.62.49,13.72,13.72,0,0,1,6,3.5,13,13,0,0,1,2.12,2.77,14,14,0,0,1,1.38,3.25,13.93,13.93,0,0,1,0,7.25,13.85,13.85,0,0,1-1.38,3.23,13.11,13.11,0,0,1-2.12,2.75A14.24,14.24,0,0,1,49,429.8a13,13,0,0,1-3.25,1.37,13.62,13.62,0,0,1-3.62.48,13.46,13.46,0,0,1-3.62-.48,13.17,13.17,0,0,1-3.25-1.37,13.46,13.46,0,0,1-4.88-4.87A13,13,0,0,1,29,421.7,13.2,13.2,0,0,1,28.54,418.07Zm6.89,0a7.55,7.55,0,0,0,.5,2.75,6.79,6.79,0,0,0,1.4,2.24,6.4,6.4,0,0,0,2.12,1.49A6.7,6.7,0,0,0,47,423.05a6.79,6.79,0,0,0,1.4-2.24,7.81,7.81,0,0,0,0-5.5,7,7,0,0,0-1.4-2.26,6.63,6.63,0,0,0-9.66,0,7,7,0,0,0-1.4,2.26A7.59,7.59,0,0,0,35.43,418.06Z" transform="translate(0 0)"/><path class="cls-2" d="M62.13,405.65a.89.89,0,0,1,.2-.6.78.78,0,0,1,.58-.22H74.73a7.34,7.34,0,0,1,3,.6,7.55,7.55,0,0,1,2.43,1.64,7.74,7.74,0,0,1,1.65,2.43,7.58,7.58,0,0,1,.6,3A7.47,7.47,0,0,1,82,415,6.76,6.76,0,0,1,80.76,417a8.61,8.61,0,0,1,2,2.8,8.06,8.06,0,0,1,.75,3.43,7.8,7.8,0,0,1-.62,3.07,8.4,8.4,0,0,1-1.69,2.55,8,8,0,0,1-2.47,1.73,7.1,7.1,0,0,1-3,.64H62.91a.85.85,0,0,1-.57-.18.75.75,0,0,1-.21-.58Zm13.4,7a2.57,2.57,0,0,0-.75-1.81,2.42,2.42,0,0,0-.86-.56,2.75,2.75,0,0,0-1.09-.21H69v5.16h3.76a3.33,3.33,0,0,0,1.12-.18,2.52,2.52,0,0,0,.86-.54,2.35,2.35,0,0,0,.56-.82A2.51,2.51,0,0,0,75.53,412.66ZM76.47,423a3.06,3.06,0,0,0-.2-1.06,3,3,0,0,0-1.45-1.64,2.29,2.29,0,0,0-1.09-.27H69v6h4.71a2.45,2.45,0,0,0,1.08-.25,2.9,2.9,0,0,0,.88-.67,3.19,3.19,0,0,0,.58-.95A3.25,3.25,0,0,0,76.47,423Z" transform="translate(0 0)"/><path class="cls-2" d="M89.3,405.65a.84.84,0,0,1,.21-.6.77.77,0,0,1,.58-.22h17.65a.81.81,0,0,1,.61.23.9.9,0,0,1,.21.62v4.4a.92.92,0,0,1-.21.58.73.73,0,0,1-.63.28H96.19v4.41h8.9a.91.91,0,0,1,.56.16.61.61,0,0,1,.22.53v3.85a.72.72,0,0,1-.76.71H96.19v4.56h12a.71.71,0,0,1,.8.81v4.48a.41.41,0,0,1-.14.31c0,.34-.29.5-.73.5h-18a.85.85,0,0,1-.57-.18.75.75,0,0,1-.22-.58Z" transform="translate(0 0)"/><path class="cls-2" d="M115.43,405.65a.89.89,0,0,1,.2-.6.75.75,0,0,1,.58-.22h11.5a8.63,8.63,0,0,1,3.44.69,8.78,8.78,0,0,1,4.67,4.61,8.43,8.43,0,0,1,.68,3.35,8,8,0,0,1-.33,2.31,8.52,8.52,0,0,1-.91,2,8.63,8.63,0,0,1-1.4,1.73,9.11,9.11,0,0,1-1.77,1.33l4.57,8.61.32.59a1.22,1.22,0,0,1,.2.58.52.52,0,0,1-.19.44.78.78,0,0,1-.51.15h-6.1a.88.88,0,0,1-.54-.18.78.78,0,0,1-.31-.48l-4.33-8.13h-2.88v8c0,.51-.28.76-.82.76h-5.29a.88.88,0,0,1-.57-.18.75.75,0,0,1-.21-.58Zm13.94,7.9a3.06,3.06,0,0,0-.2-1.06,3.26,3.26,0,0,0-.55-1,3.1,3.1,0,0,0-.86-.75,3,3,0,0,0-1.1-.39l-.93-.06q-.44,0-1,0h-2.45v6.53h3.27l.57,0,.55-.05a2.75,2.75,0,0,0,1.12-.37,2.58,2.58,0,0,0,.84-.73,3.13,3.13,0,0,0,.52-1A3.59,3.59,0,0,0,129.37,413.55Z" transform="translate(0 0)"/><path class="cls-2" d="M141,405.61a.71.71,0,0,1,.24-.56.83.83,0,0,1,.59-.22H161a.88.88,0,0,1,.57.2.8.8,0,0,1,.29.58V410a1,1,0,0,1-.22.61.75.75,0,0,1-.64.3h-6.14v19.48a.81.81,0,0,1-.23.58.73.73,0,0,1-.6.26h-5.22a.85.85,0,0,1-.57-.24.76.76,0,0,1-.26-.6V410.94h-6.13a.84.84,0,0,1-.59-.23A.91.91,0,0,1,141,410Z" transform="translate(0 0)"/><path class="cls-2" d="M181.37,405.65a.89.89,0,0,1,.2-.6.78.78,0,0,1,.58-.22H194a7.34,7.34,0,0,1,2.95.6,7.63,7.63,0,0,1,4.68,7.07,7.47,7.47,0,0,1-.41,2.49A6.76,6.76,0,0,1,200,417a8.61,8.61,0,0,1,2,2.8,8.06,8.06,0,0,1,.75,3.43,7.8,7.8,0,0,1-.62,3.07,8.4,8.4,0,0,1-1.69,2.55,8,8,0,0,1-2.47,1.73,7.1,7.1,0,0,1-3,.64H182.15a.85.85,0,0,1-.57-.18.75.75,0,0,1-.21-.58Zm13.4,7a2.57,2.57,0,0,0-.75-1.81,2.42,2.42,0,0,0-.86-.56,2.74,2.74,0,0,0-1.08-.21h-3.82v5.16H192a3.33,3.33,0,0,0,1.12-.18,2.52,2.52,0,0,0,.86-.54,2.35,2.35,0,0,0,.56-.82A2.51,2.51,0,0,0,194.77,412.66Zm.94,10.34a2.84,2.84,0,0,0-.2-1.06,3,3,0,0,0-1.45-1.64A2.29,2.29,0,0,0,193,420h-4.71v6H193a2.45,2.45,0,0,0,1.08-.25,2.9,2.9,0,0,0,.88-.67,3.19,3.19,0,0,0,.58-.95A3,3,0,0,0,195.71,423Z" transform="translate(0 0)"/><path class="cls-2" d="M207.28,418.07a13.48,13.48,0,0,1,1.85-6.87,14.08,14.08,0,0,1,2.13-2.77A13.5,13.5,0,0,1,214,406.3a14.16,14.16,0,0,1,3.25-1.37,13.62,13.62,0,0,1,7.24,0,13.87,13.87,0,0,1,3.26,1.37,13.56,13.56,0,0,1,2.76,2.13,13.35,13.35,0,0,1,2.13,2.77,13.56,13.56,0,0,1,1.37,3.25,13.65,13.65,0,0,1,0,7.25,13.58,13.58,0,0,1-3.5,6,13.88,13.88,0,0,1-2.76,2.12,13.08,13.08,0,0,1-3.26,1.37,13.89,13.89,0,0,1-7.24,0A13.33,13.33,0,0,1,214,429.8a13.82,13.82,0,0,1-2.75-2.12,14.25,14.25,0,0,1-2.13-2.75,13.42,13.42,0,0,1-1.37-3.23A13.59,13.59,0,0,1,207.28,418.07Zm6.89,0a7.34,7.34,0,0,0,.5,2.75,6.77,6.77,0,0,0,1.39,2.24,6.55,6.55,0,0,0,2.13,1.49,6.42,6.42,0,0,0,2.7.55,6.59,6.59,0,0,0,4.84-2,7,7,0,0,0,1.4-2.24,8,8,0,0,0,0-5.5,7.17,7.17,0,0,0-1.4-2.26,6.5,6.5,0,0,0-4.84-2.06,6.42,6.42,0,0,0-2.7.55,6.6,6.6,0,0,0-2.13,1.51,7,7,0,0,0-1.39,2.26A7.38,7.38,0,0,0,214.17,418.06Z" transform="translate(0 0)"/><path class="cls-2" d="M243.11,422.72c.2.16.46.39.77.67a9.82,9.82,0,0,0,1.08.82,8.7,8.7,0,0,0,1.8,1,5.29,5.29,0,0,0,1.86.34,4.79,4.79,0,0,0,1.53-.21,2.71,2.71,0,0,0,1-.54,2,2,0,0,0,.5-.78,3,3,0,0,0,.15-1,1.41,1.41,0,0,0-.41-1,4.42,4.42,0,0,0-1-.78,9,9,0,0,0-1.26-.57c-.44-.16-.82-.3-1.14-.4a27.23,27.23,0,0,1-3.74-1.61,12,12,0,0,1-2.67-1.92,6.9,6.9,0,0,1-2.13-5.17,6.81,6.81,0,0,1,.66-3,6.62,6.62,0,0,1,1.91-2.31,9,9,0,0,1,3-1.48,13.48,13.48,0,0,1,3.9-.53,12.59,12.59,0,0,1,3.1.37,11.84,11.84,0,0,1,2.93,1.16c.4.24.79.49,1.15.74s.68.5,1,.74a4.48,4.48,0,0,1,.65.68,1,1,0,0,1,.24.55.92.92,0,0,1-.11.43,2.9,2.9,0,0,1-.35.44l-2.72,2.9a.9.9,0,0,1-.61.3.71.71,0,0,1-.45-.14,5.13,5.13,0,0,1-.46-.35l-.16-.15c-.23-.2-.5-.41-.79-.62a7.28,7.28,0,0,0-.93-.58,6.76,6.76,0,0,0-1.05-.42,3.65,3.65,0,0,0-1.13-.17,6.45,6.45,0,0,0-1.1.09,3.06,3.06,0,0,0-.91.32,1.76,1.76,0,0,0-.62.56,1.51,1.51,0,0,0-.23.84,1.45,1.45,0,0,0,.25.86,2.28,2.28,0,0,0,.75.68,7.09,7.09,0,0,0,1.23.59c.5.18,1.07.38,1.72.59,1.26.42,2.42.86,3.48,1.31a12,12,0,0,1,2.75,1.62,6.76,6.76,0,0,1,1.81,2.24,7,7,0,0,1,.65,3.15,7.76,7.76,0,0,1-.81,3.55,8.09,8.09,0,0,1-2.19,2.71,10.23,10.23,0,0,1-3.29,1.74,13,13,0,0,1-4.05.61,11.48,11.48,0,0,1-4-.73,15.36,15.36,0,0,1-3.68-2,8.58,8.58,0,0,1-1.2-1c-.33-.34-.59-.6-.78-.81l0-.05s0,0,0,0l0,0a.1.1,0,0,0,0,0l0,0a1.22,1.22,0,0,1-.41-.72,1,1,0,0,1,.41-.67l3.08-2.94a1.16,1.16,0,0,1,.6-.27.68.68,0,0,1,.34.11A3.6,3.6,0,0,1,243.11,422.72Z" transform="translate(0 0)"/><path class="cls-2" d="M285.36,406.75a1.1,1.1,0,0,1,.44.47.71.71,0,0,1-.05.67l-3,4.28a.69.69,0,0,1-.42.34.78.78,0,0,1-.54-.15,6.54,6.54,0,0,0-1.92-1,6.81,6.81,0,0,0-2.23-.36,6.46,6.46,0,0,0-4.8,2.06,7.09,7.09,0,0,0-1.39,2.25,7.73,7.73,0,0,0,0,5.47,7,7,0,0,0,1.39,2.23,6.58,6.58,0,0,0,2.12,1.5,6.43,6.43,0,0,0,2.68.55,7,7,0,0,0,2.25-.36,7.22,7.22,0,0,0,1.94-1,.83.83,0,0,1,.53-.16.79.79,0,0,1,.43.32l3,4.38a.69.69,0,0,1,.05.66,1,1,0,0,1-.44.44,14.25,14.25,0,0,1-3.6,1.74,13.89,13.89,0,0,1-7.69.13,13.17,13.17,0,0,1-3.25-1.37,13.54,13.54,0,0,1-2.75-2.12,13.86,13.86,0,0,1-2.13-2.75,13.42,13.42,0,0,1-1.37-3.23,13.67,13.67,0,0,1,3.5-13.27,13.23,13.23,0,0,1,2.75-2.13,14,14,0,0,1,3.25-1.37,13.08,13.08,0,0,1,3.62-.49,13.27,13.27,0,0,1,4,.6A14,14,0,0,1,285.36,406.75Z" transform="translate(0 0)"/><path class="cls-2" d="M292.37,405.62a.92.92,0,0,1,.22-.55.69.69,0,0,1,.55-.24h5.28a.9.9,0,0,1,.55.23.67.67,0,0,1,.29.56v8.45h8.84v-8.45a.79.79,0,0,1,.23-.56.76.76,0,0,1,.57-.23h5.2a1.05,1.05,0,0,1,.62.18.64.64,0,0,1,.27.57v24.9a.75.75,0,0,1-.23.59.9.9,0,0,1-.6.19H308.9a.82.82,0,0,1-.57-.19.75.75,0,0,1-.23-.59V420.37h-8.84v10.11a.73.73,0,0,1-.24.58,1,1,0,0,1-.65.2h-5.23c-.5,0-.76-.23-.77-.69Z" transform="translate(0 0)"/><path class="cls-2" d="M356.19,406.75a1.19,1.19,0,0,1,.45.47.74.74,0,0,1-.06.67l-3,4.28a.72.72,0,0,1-.42.34.81.81,0,0,1-.55-.15,6.54,6.54,0,0,0-1.92-1,6.8,6.8,0,0,0-2.22-.36,6.44,6.44,0,0,0-2.69.55,6.56,6.56,0,0,0-2.12,1.51,7.28,7.28,0,0,0-1.39,2.25,7.88,7.88,0,0,0,0,5.47,7.18,7.18,0,0,0,1.39,2.23,6.69,6.69,0,0,0,2.12,1.5,6.44,6.44,0,0,0,2.69.55,7,7,0,0,0,2.24-.36,7.07,7.07,0,0,0,1.94-1,.83.83,0,0,1,.53-.16.73.73,0,0,1,.43.32l3,4.38a.72.72,0,0,1,.06.66,1.12,1.12,0,0,1-.45.44,13.93,13.93,0,0,1-3.6,1.74,13.32,13.32,0,0,1-4.07.61,13.51,13.51,0,0,1-3.62-.48,13.17,13.17,0,0,1-3.25-1.37,13.53,13.53,0,0,1-4.87-4.87,13,13,0,0,1-1.37-3.23,13.63,13.63,0,0,1,1.37-10.5,13.66,13.66,0,0,1,2.12-2.77,13.5,13.5,0,0,1,2.75-2.13,14,14,0,0,1,3.25-1.37,13.73,13.73,0,0,1,7.65.11A13.65,13.65,0,0,1,356.19,406.75Z" transform="translate(0 0)"/><path class="cls-2" d="M363.13,405.65a.84.84,0,0,1,.21-.6.76.76,0,0,1,.57-.22h17.66a.82.82,0,0,1,.61.23.9.9,0,0,1,.21.62v4.4a.92.92,0,0,1-.21.58.74.74,0,0,1-.63.28H370v4.41h8.9a.93.93,0,0,1,.56.16.61.61,0,0,1,.22.53v3.85a.72.72,0,0,1-.76.71H370v4.56h12a.71.71,0,0,1,.8.81v4.48a.44.44,0,0,1-.14.31c-.05.34-.29.5-.73.5h-18a.84.84,0,0,1-.56-.18.72.72,0,0,1-.22-.58Z" transform="translate(0 0)"/><path class="cls-2" d="M389.33,405.62a.8.8,0,0,1,.2-.56.72.72,0,0,1,.58-.23h5.82a1.14,1.14,0,0,1,.52.13,1.08,1.08,0,0,1,.46.42c1.51,2.44,3,4.83,4.49,7.19l4.5,7.19V405.51a.88.88,0,0,1,.28-.5.77.77,0,0,1,.5-.18h5.07a1,1,0,0,1,.63.21.72.72,0,0,1,.25.58v24.95a.61.61,0,0,1-.22.52.87.87,0,0,1-.58.17h-5.68a.57.57,0,0,1-.41-.16,2.39,2.39,0,0,1-.37-.43l-4.69-7.74q-2.31-3.82-4.69-7.74v15.29a.68.68,0,0,1-.82.78h-5.06a.71.71,0,0,1-.59-.22.79.79,0,0,1-.19-.54Z" transform="translate(0 0)"/><path class="cls-2" d="M419,405.61a.71.71,0,0,1,.24-.56.82.82,0,0,1,.59-.22H439a.88.88,0,0,1,.57.2.8.8,0,0,1,.29.58V410a1,1,0,0,1-.23.61.73.73,0,0,1-.63.3h-6.14v19.48a.81.81,0,0,1-.23.58.73.73,0,0,1-.6.26h-5.22a.85.85,0,0,1-.57-.24.77.77,0,0,1-.27-.6V410.94h-6.12a.82.82,0,0,1-.59-.23A.91.91,0,0,1,419,410Z" transform="translate(0 0)"/><path class="cls-2" d="M446.23,405.65a.88.88,0,0,1,.19-.6.78.78,0,0,1,.59-.22h11.5a8.58,8.58,0,0,1,3.43.69,8.79,8.79,0,0,1,2.8,1.86,8.59,8.59,0,0,1,1.87,2.75,8.27,8.27,0,0,1,.69,3.35,8,8,0,0,1-.33,2.31,8.17,8.17,0,0,1-.92,2,8.58,8.58,0,0,1-1.39,1.73,9.11,9.11,0,0,1-1.77,1.33l4.57,8.61c.08.17.19.36.32.59a1.22,1.22,0,0,1,.2.58.55.55,0,0,1-.19.44.79.79,0,0,1-.51.15h-6.1a.91.91,0,0,1-.55-.18.83.83,0,0,1-.31-.48L456,422.47h-2.88v8c0,.51-.28.76-.82.76H447a.85.85,0,0,1-.57-.18.75.75,0,0,1-.21-.58Zm13.93,7.9a3,3,0,0,0-.19-1.06,3.49,3.49,0,0,0-.55-1,3.25,3.25,0,0,0-.86-.75,3,3,0,0,0-1.1-.39l-.94-.06c-.29,0-.6,0-.95,0h-2.45v6.53h3.27l.57,0,.55-.05a2.75,2.75,0,0,0,1.12-.37,2.81,2.81,0,0,0,.84-.73,3.11,3.11,0,0,0,.51-1A3.59,3.59,0,0,0,460.16,413.55Z" transform="translate(0 0)"/><path class="cls-2" d="M473.23,405.65a.84.84,0,0,1,.2-.6.78.78,0,0,1,.58-.22h17.65a.81.81,0,0,1,.61.23.9.9,0,0,1,.21.62v4.4a.92.92,0,0,1-.21.58.72.72,0,0,1-.62.28H480.11v4.41H489a.91.91,0,0,1,.56.16.61.61,0,0,1,.22.53v3.85a.72.72,0,0,1-.76.71h-8.92v4.56h12a.71.71,0,0,1,.8.81v4.48a.41.41,0,0,1-.14.31c-.05.34-.29.5-.73.5H474a.85.85,0,0,1-.57-.18.75.75,0,0,1-.21-.58Z" transform="translate(0 0)"/><path class="cls-2" d="M512.68,405.65a.82.82,0,0,1,.21-.59.71.71,0,0,1,.49-.23h17a.78.78,0,0,1,.61.23.9.9,0,0,1,.21.62v4.4a.88.88,0,0,1-.22.58.72.72,0,0,1-.62.28H519.57v5.51h8a.89.89,0,0,1,.57.19.74.74,0,0,1,.23.6v4.25a1,1,0,0,1-.2.58.68.68,0,0,1-.56.27h-8v8.16c0,.51-.27.76-.82.76h-5.43a.68.68,0,0,1-.64-.75Z" transform="translate(0 0)"/><path class="cls-2" d="M536.39,418.07a13.48,13.48,0,0,1,1.85-6.87,13.64,13.64,0,0,1,4.88-4.9,14,14,0,0,1,3.25-1.37,13.62,13.62,0,0,1,7.24,0,14.05,14.05,0,0,1,3.26,1.37,13.56,13.56,0,0,1,2.76,2.13,13.35,13.35,0,0,1,2.13,2.77,14.42,14.42,0,0,1,1.37,3.25,13.65,13.65,0,0,1,0,7.25,14.26,14.26,0,0,1-1.37,3.23,13.5,13.5,0,0,1-2.13,2.75,13.88,13.88,0,0,1-2.76,2.12,13.24,13.24,0,0,1-3.26,1.37,13.89,13.89,0,0,1-7.24,0,13.17,13.17,0,0,1-3.25-1.37,13.47,13.47,0,0,1-6.73-11.73Zm6.89,0a7.54,7.54,0,0,0,.49,2.75,6.79,6.79,0,0,0,1.4,2.24,6.72,6.72,0,0,0,9.67,0,6.77,6.77,0,0,0,1.39-2.24,7.81,7.81,0,0,0,0-5.5,7,7,0,0,0-1.39-2.26,6.64,6.64,0,0,0-9.67,0,7,7,0,0,0-1.4,2.26A7.58,7.58,0,0,0,543.28,418.06Z" transform="translate(0 0)"/><path class="cls-2" d="M570,405.65a.88.88,0,0,1,.19-.6.78.78,0,0,1,.59-.22h11.5a8.85,8.85,0,0,1,6.22,2.55,8.46,8.46,0,0,1,1.88,2.75,8.27,8.27,0,0,1,.69,3.35,8,8,0,0,1-.33,2.31,8.72,8.72,0,0,1-2.32,3.77,9.11,9.11,0,0,1-1.77,1.33l4.58,8.61c.08.17.19.36.32.59a1.19,1.19,0,0,1,.19.58.54.54,0,0,1-.18.44.81.81,0,0,1-.51.15H585a.88.88,0,0,1-.54-.18.83.83,0,0,1-.31-.48l-4.32-8.13h-2.89v8c0,.51-.27.76-.82.76h-5.28a.85.85,0,0,1-.57-.18.75.75,0,0,1-.21-.58Zm13.93,7.9a2.84,2.84,0,0,0-.2-1.06,3.26,3.26,0,0,0-.55-1,3.06,3.06,0,0,0-.85-.75,2.94,2.94,0,0,0-1.11-.39l-.93-.06c-.29,0-.61,0-1,0h-2.46v6.53h3.28l.57,0,.55-.05a2.91,2.91,0,0,0,2-1.1,3.33,3.33,0,0,0,.51-1A3.59,3.59,0,0,0,584,413.55Z" transform="translate(0 0)"/><path class="cls-2" d="M633.13,418.07a13.13,13.13,0,0,1-.48,3.59,12.62,12.62,0,0,1-1.37,3.17,13.26,13.26,0,0,1-2.12,2.66,13.61,13.61,0,0,1-2.74,2,14.22,14.22,0,0,1-3.25,1.29,14.48,14.48,0,0,1-3.62.45h-8.77a1.2,1.2,0,0,1-.57-.14.64.64,0,0,1-.25-.61V405.65a.84.84,0,0,1,.21-.6.75.75,0,0,1,.61-.24h8.77a13.91,13.91,0,0,1,3.61.47,13.54,13.54,0,0,1,6,3.36,12.65,12.65,0,0,1,2.12,2.67,13.13,13.13,0,0,1,1.37,3.19A12.77,12.77,0,0,1,633.13,418.07Zm-16.28-6.87v13.69h1.49c.28,0,.54,0,.8,0s.53,0,.79-.06a7.16,7.16,0,0,0,2.49-.65,6.89,6.89,0,0,0,2-1.42,6.39,6.39,0,0,0,1.35-2.08,7.06,7.06,0,0,0-.07-5.34,6.71,6.71,0,0,0-3.77-3.6,7.42,7.42,0,0,0-2.75-.51Z" transform="translate(0 0)"/><path class="cls-2" d="M645.09,405.53a.67.67,0,0,1,.12-.24,1.06,1.06,0,0,1,.24-.23,1.78,1.78,0,0,1,.3-.17.89.89,0,0,1,.3-.06h4.56a.76.76,0,0,1,.52.19,1.93,1.93,0,0,1,.32.33l.44,1,9.35,24.1a.54.54,0,0,1-.06.58.84.84,0,0,1-.67.22H655.4a1.11,1.11,0,0,1-.63-.15,1,1,0,0,1-.35-.51q-.36-.9-.69-1.8c-.23-.6-.46-1.2-.68-1.81H643.6l-.69,1.81c-.23.6-.46,1.2-.68,1.8a.9.9,0,0,1-.91.66h-5.25a.86.86,0,0,1-.56-.18c-.15-.12-.18-.29-.08-.53Zm3.24,7.61c-.22.61-.45,1.26-.68,2l-.69,2.12c-.22.71-.45,1.41-.68,2.11s-.46,1.34-.69,1.95h5.47Z" transform="translate(0 0)"/><path class="cls-2" d="M661.88,405.61a.71.71,0,0,1,.24-.56.82.82,0,0,1,.59-.22h19.15a.88.88,0,0,1,.57.2.8.8,0,0,1,.29.58V410a1,1,0,0,1-.23.61.72.72,0,0,1-.63.3h-6.14v19.48a.81.81,0,0,1-.23.58.73.73,0,0,1-.6.26h-5.22a.85.85,0,0,1-.57-.24.77.77,0,0,1-.27-.6V410.94h-6.12a.82.82,0,0,1-.59-.23.91.91,0,0,1-.24-.68Z" transform="translate(0 0)"/><path class="cls-2" d="M693.2,405.53a.63.63,0,0,1,.11-.24,1.75,1.75,0,0,1,.24-.23,1.87,1.87,0,0,1,.31-.17.8.8,0,0,1,.3-.06h4.56a.72.72,0,0,1,.51.19,1.61,1.61,0,0,1,.32.33l.45,1,9.34,24.1a.52.52,0,0,1-.05.58.87.87,0,0,1-.68.22H703.5a1.13,1.13,0,0,1-.63-.15,1,1,0,0,1-.35-.51l-.69-1.8c-.22-.6-.45-1.2-.68-1.81H691.7c-.22.61-.45,1.21-.68,1.81l-.69,1.8a.88.88,0,0,1-.9.66h-5.25a.84.84,0,0,1-.56-.18c-.15-.12-.18-.29-.08-.53Zm3.24,7.61c-.23.61-.46,1.26-.69,2s-.46,1.41-.68,2.12l-.69,2.11c-.23.69-.46,1.34-.68,1.95h5.46Z" transform="translate(0 0)"/><path class="cls-2" d="M731.43,422.72c.2.16.46.39.77.67a9.82,9.82,0,0,0,1.08.82,8.7,8.7,0,0,0,1.8,1,5.29,5.29,0,0,0,1.86.34,4.79,4.79,0,0,0,1.53-.21,2.71,2.71,0,0,0,1-.54,2,2,0,0,0,.5-.78,3,3,0,0,0,.15-1,1.37,1.37,0,0,0-.41-1,4.42,4.42,0,0,0-1-.78,9,9,0,0,0-1.26-.57c-.44-.16-.82-.3-1.14-.4a27.23,27.23,0,0,1-3.74-1.61,11.75,11.75,0,0,1-2.67-1.92,7.42,7.42,0,0,1-1.6-2.33,7.22,7.22,0,0,1-.53-2.84,6.68,6.68,0,0,1,.67-3,6.48,6.48,0,0,1,1.9-2.31,9,9,0,0,1,3-1.48,13.48,13.48,0,0,1,3.9-.53,12.59,12.59,0,0,1,3.1.37,11.84,11.84,0,0,1,2.93,1.16c.4.24.79.49,1.15.74s.68.5.95.74a4.48,4.48,0,0,1,.65.68,1,1,0,0,1,.24.55.92.92,0,0,1-.11.43,2.9,2.9,0,0,1-.35.44l-2.72,2.9a.9.9,0,0,1-.61.3.71.71,0,0,1-.45-.14,5.13,5.13,0,0,1-.46-.35l-.16-.15c-.24-.2-.5-.41-.79-.62a7.28,7.28,0,0,0-.93-.58,6.76,6.76,0,0,0-1.05-.42,3.65,3.65,0,0,0-1.13-.17,6.45,6.45,0,0,0-1.1.09,3.06,3.06,0,0,0-.91.32,1.68,1.68,0,0,0-.62.56,1.51,1.51,0,0,0-.23.84,1.45,1.45,0,0,0,.25.86,2.28,2.28,0,0,0,.75.68,7.09,7.09,0,0,0,1.23.59c.5.18,1.07.38,1.72.59,1.26.42,2.42.86,3.48,1.31a12,12,0,0,1,2.75,1.62,6.76,6.76,0,0,1,1.81,2.24,7,7,0,0,1,.65,3.15,7.76,7.76,0,0,1-.81,3.55,8.09,8.09,0,0,1-2.19,2.71,10.33,10.33,0,0,1-3.29,1.74,13,13,0,0,1-4,.61,11.48,11.48,0,0,1-4-.73,15.36,15.36,0,0,1-3.68-2,8.58,8.58,0,0,1-1.2-1c-.33-.34-.59-.6-.78-.81l0-.05s0,0,0,0l0,0,0,0,0,0a1.22,1.22,0,0,1-.41-.72,1,1,0,0,1,.41-.67l3.08-2.94a1.16,1.16,0,0,1,.6-.27.68.68,0,0,1,.34.11A3.6,3.6,0,0,1,731.43,422.72Z" transform="translate(0 0)"/><path class="cls-2" d="M773.68,406.75a1.1,1.1,0,0,1,.44.47.71.71,0,0,1,0,.67l-3,4.28a.69.69,0,0,1-.42.34.78.78,0,0,1-.54-.15,6.54,6.54,0,0,0-1.92-1A6.81,6.81,0,0,0,766,411a6.46,6.46,0,0,0-4.8,2.06,7.09,7.09,0,0,0-1.39,2.25,7.73,7.73,0,0,0,0,5.47,7,7,0,0,0,1.39,2.23,6.58,6.58,0,0,0,2.12,1.5,6.43,6.43,0,0,0,2.68.55,7,7,0,0,0,2.25-.36,7.22,7.22,0,0,0,1.94-1,.83.83,0,0,1,.53-.16.76.76,0,0,1,.43.32l3,4.38a.69.69,0,0,1,.05.66,1,1,0,0,1-.44.44,14.25,14.25,0,0,1-3.6,1.74,13.89,13.89,0,0,1-7.69.13,13.17,13.17,0,0,1-3.25-1.37,13.54,13.54,0,0,1-2.75-2.12,13.86,13.86,0,0,1-2.13-2.75A13.42,13.42,0,0,1,753,421.7a13.67,13.67,0,0,1,3.5-13.27,13.23,13.23,0,0,1,2.75-2.13,14,14,0,0,1,3.25-1.37,13.08,13.08,0,0,1,3.62-.49,13.27,13.27,0,0,1,4,.6A14,14,0,0,1,773.68,406.75Z" transform="translate(0 0)"/><path class="cls-2" d="M780.69,405.62a.85.85,0,0,1,.2-.56.72.72,0,0,1,.58-.23h5.24a1,1,0,0,1,.57.22.66.66,0,0,1,.3.57v24.86q0,.78-.87.78h-5.24a.69.69,0,0,1-.78-.78Z" transform="translate(0 0)"/><path class="cls-2" d="M795.27,405.65a.84.84,0,0,1,.2-.6.78.78,0,0,1,.58-.22H813.7a.81.81,0,0,1,.61.23.9.9,0,0,1,.21.62v4.4a.92.92,0,0,1-.21.58.72.72,0,0,1-.62.28H802.15v4.41h8.9a.91.91,0,0,1,.56.16.61.61,0,0,1,.22.53v3.85a.72.72,0,0,1-.76.71h-8.92v4.56h12a.71.71,0,0,1,.8.81v4.48a.41.41,0,0,1-.14.31c0,.34-.29.5-.73.5h-18a.85.85,0,0,1-.57-.18.75.75,0,0,1-.21-.58Z" transform="translate(0 0)"/><path class="cls-2" d="M821.43,405.62a.85.85,0,0,1,.19-.56.75.75,0,0,1,.59-.23H828a1.18,1.18,0,0,1,1,.55c1.51,2.44,3,4.83,4.48,7.19l4.51,7.19V405.51a.83.83,0,0,1,.28-.5.75.75,0,0,1,.5-.18h5.07a1,1,0,0,1,.63.21.71.71,0,0,1,.24.58v24.95a.63.63,0,0,1-.21.52.88.88,0,0,1-.59.17h-5.67a.57.57,0,0,1-.41-.16,2.4,2.4,0,0,1-.38-.43c-1.58-2.61-3.13-5.19-4.68-7.74s-3.11-5.13-4.7-7.74v15.29a.9.9,0,0,1-.17.59.86.86,0,0,1-.64.19h-5.06a.75.75,0,0,1-.6-.22.84.84,0,0,1-.18-.54Z" transform="translate(0 0)"/><path class="cls-2" d="M872.72,406.75a1.1,1.1,0,0,1,.44.47.71.71,0,0,1,0,.67l-3,4.28a.69.69,0,0,1-.42.34.79.79,0,0,1-.54-.15,6.54,6.54,0,0,0-1.92-1A6.8,6.8,0,0,0,865,411a6.46,6.46,0,0,0-4.81,2.06,7.09,7.09,0,0,0-1.39,2.25,7.73,7.73,0,0,0,0,5.47,7,7,0,0,0,1.39,2.23,6.58,6.58,0,0,0,2.12,1.5,6.44,6.44,0,0,0,2.69.55,7,7,0,0,0,2.24-.36,7.07,7.07,0,0,0,1.94-1,.83.83,0,0,1,.53-.16.76.76,0,0,1,.43.32l3,4.38a.72.72,0,0,1,.06.66,1.12,1.12,0,0,1-.45.44,14.25,14.25,0,0,1-3.6,1.74,13.37,13.37,0,0,1-4.07.61,13.51,13.51,0,0,1-3.62-.48,13.17,13.17,0,0,1-3.25-1.37,13.82,13.82,0,0,1-2.75-2.12,14.25,14.25,0,0,1-2.13-2.75A13.42,13.42,0,0,1,852,421.7a13.63,13.63,0,0,1,1.37-10.5,14.08,14.08,0,0,1,2.13-2.77,13.5,13.5,0,0,1,2.75-2.13,14,14,0,0,1,3.25-1.37,13.13,13.13,0,0,1,3.62-.49,13.27,13.27,0,0,1,4,.6A13.8,13.8,0,0,1,872.72,406.75Z" transform="translate(0 0)"/><path class="cls-2" d="M879.66,405.65a.89.89,0,0,1,.2-.6.78.78,0,0,1,.58-.22H898.1a.78.78,0,0,1,.6.23.86.86,0,0,1,.22.62v4.4a.88.88,0,0,1-.22.58.72.72,0,0,1-.62.28H886.55v4.41h8.9a.93.93,0,0,1,.56.16.61.61,0,0,1,.22.53v3.85a.73.73,0,0,1-.2.48.72.72,0,0,1-.57.23h-8.91v4.56h12a.71.71,0,0,1,.8.81v4.48a.44.44,0,0,1-.14.31c0,.34-.29.5-.73.5h-18a.86.86,0,0,1-.57-.18.75.75,0,0,1-.21-.58Z" transform="translate(0 0)"/><path class="cls-2" d="M10.3,450a.47.47,0,0,1,.12-.23,1.06,1.06,0,0,1,.24-.23,1.11,1.11,0,0,1,.3-.17.89.89,0,0,1,.3-.06h4.56a.8.8,0,0,1,.52.18,4.57,4.57,0,0,1,.32.33l.44,1L26.44,475a.52.52,0,0,1-.05.58.85.85,0,0,1-.68.22h-5.1a1.08,1.08,0,0,1-.63-.15,1,1,0,0,1-.35-.5c-.24-.61-.47-1.21-.7-1.81s-.45-1.2-.67-1.81H8.81l-.69,1.81c-.23.6-.46,1.2-.68,1.81a.89.89,0,0,1-.91.65H1.28a.85.85,0,0,1-.56-.17A.42.42,0,0,1,.64,475Zm3.24,7.62c-.22.6-.45,1.25-.68,1.95l-.69,2.12c-.22.71-.45,1.42-.68,2.11s-.46,1.35-.69,1.95h5.46Z" transform="translate(0 0)"/><path class="cls-2" d="M32.09,450.11a.82.82,0,0,1,.19-.55.71.71,0,0,1,.59-.23h5.82a1.3,1.3,0,0,1,.52.12,1.17,1.17,0,0,1,.46.43c1.5,2.43,3,4.83,4.48,7.19s3,4.76,4.51,7.19V450a.86.86,0,0,1,.28-.5.74.74,0,0,1,.5-.17h5.07a.91.91,0,0,1,.62.2.7.7,0,0,1,.25.58v24.95a.65.65,0,0,1-.21.53.94.94,0,0,1-.59.16H48.9a.55.55,0,0,1-.4-.16,2.3,2.3,0,0,1-.38-.42l-4.68-7.74q-2.31-3.82-4.7-7.75V475a.85.85,0,0,1-.18.59.83.83,0,0,1-.64.19H32.87a.75.75,0,0,1-.6-.22.84.84,0,0,1-.18-.54Z" transform="translate(0 0)"/><path class="cls-2" d="M86.1,462.57a13.06,13.06,0,0,1-.48,3.58,12.87,12.87,0,0,1-3.5,5.83,13,13,0,0,1-2.74,2,13.44,13.44,0,0,1-3.25,1.29,14.34,14.34,0,0,1-3.61.45H63.75a1,1,0,0,1-.57-.14c-.17-.09-.25-.29-.25-.6V450.14a.9.9,0,0,1,.2-.6.77.77,0,0,1,.62-.23h8.77a13.9,13.9,0,0,1,3.61.46,13.85,13.85,0,0,1,6,3.36,13,13,0,0,1,2.13,2.67A13.53,13.53,0,0,1,85.61,459,12.79,12.79,0,0,1,86.1,462.57ZM69.82,455.7v13.68h1.49l.8,0,.79-.07a7,7,0,0,0,2.49-.65,6.89,6.89,0,0,0,2-1.42,6.62,6.62,0,0,0,1.35-2.07,7.09,7.09,0,0,0-.07-5.35,6.85,6.85,0,0,0-1.52-2.17,7,7,0,0,0-2.25-1.43,7.67,7.67,0,0,0-2.75-.5Z" transform="translate(0 0)"/><path class="cls-2" d="M113.56,450a.47.47,0,0,1,.12-.23,1.06,1.06,0,0,1,.24-.23,1.11,1.11,0,0,1,.3-.17.89.89,0,0,1,.3-.06h4.56a.8.8,0,0,1,.52.18,4.57,4.57,0,0,1,.32.33l.44,1L129.7,475a.52.52,0,0,1,0,.58.87.87,0,0,1-.68.22h-5.1a1.14,1.14,0,0,1-.64-.15,1,1,0,0,1-.34-.5c-.24-.61-.47-1.21-.7-1.81s-.45-1.2-.67-1.81h-9.45l-.69,1.81c-.23.6-.46,1.2-.68,1.81a.89.89,0,0,1-.91.65h-5.25a.85.85,0,0,1-.56-.17.42.42,0,0,1-.08-.54Zm3.24,7.62c-.22.6-.45,1.25-.68,1.95s-.46,1.41-.69,2.12-.45,1.42-.68,2.11-.46,1.35-.69,1.95h5.46Z" transform="translate(0 0)"/><path class="cls-2" d="M135.31,450.14a.83.83,0,0,1,.2-.59.72.72,0,0,1,.58-.22h11.5A8.54,8.54,0,0,1,151,450a9.13,9.13,0,0,1,2.8,1.86,8.79,8.79,0,0,1,1.88,2.75,8.44,8.44,0,0,1,.68,3.36,7.94,7.94,0,0,1-.33,2.3,8.77,8.77,0,0,1-.91,2.05,8.93,8.93,0,0,1-1.4,1.72,9.11,9.11,0,0,1-1.77,1.33l4.57,8.61c.09.17.19.37.32.59a1.25,1.25,0,0,1,.2.59.5.5,0,0,1-.19.43.78.78,0,0,1-.51.15h-6.1a.87.87,0,0,1-.54-.17.78.78,0,0,1-.31-.48L145.08,467H142.2v8c0,.51-.28.76-.82.76h-5.29a.88.88,0,0,1-.57-.18.75.75,0,0,1-.21-.58Zm13.94,7.91a3.07,3.07,0,0,0-.2-1.07,3.63,3.63,0,0,0-.55-1,3.1,3.1,0,0,0-.86-.75,3,3,0,0,0-1.1-.39l-.93-.06c-.3,0-.61,0-1,0H142.2v6.53H146l.55-.06a2.9,2.9,0,0,0,1.12-.36,2.84,2.84,0,0,0,.84-.73,3.18,3.18,0,0,0,.52-1A3.49,3.49,0,0,0,149.25,458.05Z" transform="translate(0 0)"/><path class="cls-2" d="M160.87,450.11a.72.72,0,0,1,.24-.57.87.87,0,0,1,.59-.21h19.15a.87.87,0,0,1,.57.19.82.82,0,0,1,.29.59v4.42a1,1,0,0,1-.23.61.74.74,0,0,1-.63.29h-6.14v19.49a.84.84,0,0,1-.23.58.76.76,0,0,1-.6.25h-5.22a.85.85,0,0,1-.57-.24.74.74,0,0,1-.26-.59V455.43H161.7a.84.84,0,0,1-.59-.23.89.89,0,0,1-.24-.67Z" transform="translate(0 0)"/><path class="cls-2" d="M188.11,450.11a.83.83,0,0,1,.2-.55.71.71,0,0,1,.59-.23h5.23a1,1,0,0,1,.57.21.66.66,0,0,1,.3.57V475q0,.78-.87.78H188.9a.69.69,0,0,1-.79-.78Z" transform="translate(0 0)"/><path class="cls-2" d="M202.87,450.14a.83.83,0,0,1,.2-.58.73.73,0,0,1,.49-.23h17a.77.77,0,0,1,.62.23.92.92,0,0,1,.2.62v4.4a1,1,0,0,1-.21.58.74.74,0,0,1-.62.27H209.76V461h8a.92.92,0,0,1,.57.18.75.75,0,0,1,.23.6V466a.92.92,0,0,1-.21.58.64.64,0,0,1-.56.28h-8V475c0,.51-.28.76-.82.76h-5.43a.66.66,0,0,1-.64-.74Z" transform="translate(0 0)"/><path class="cls-2" d="M227.87,450.11a.83.83,0,0,1,.2-.55.71.71,0,0,1,.59-.23h5.23a1,1,0,0,1,.57.21.66.66,0,0,1,.3.57V475q0,.78-.87.78h-5.23a.69.69,0,0,1-.79-.78Z" transform="translate(0 0)"/><path class="cls-2" d="M262.61,451.25a1.17,1.17,0,0,1,.45.46.73.73,0,0,1-.06.68l-3,4.27a.66.66,0,0,1-.42.34.72.72,0,0,1-.54-.15,7.25,7.25,0,0,0-1.93-1,6.8,6.8,0,0,0-2.22-.36,6.51,6.51,0,0,0-4.81,2.07,7,7,0,0,0-1.38,2.24,7.33,7.33,0,0,0-.5,2.74,7.24,7.24,0,0,0,.5,2.73,7,7,0,0,0,1.38,2.23,6.69,6.69,0,0,0,2.12,1.5,6.47,6.47,0,0,0,2.69.55,7,7,0,0,0,2.24-.36,7,7,0,0,0,1.94-1,.8.8,0,0,1,.54-.16.7.7,0,0,1,.42.32l3.05,4.37a.72.72,0,0,1,.05.66,1.14,1.14,0,0,1-.45.45,14.24,14.24,0,0,1-3.6,1.73,13.33,13.33,0,0,1-4.07.62,13.57,13.57,0,0,1-3.62-.48,13.73,13.73,0,0,1-3.25-1.37,14.56,14.56,0,0,1-2.75-2.13,14,14,0,0,1-2.12-2.74,12.94,12.94,0,0,1-1.37-3.24,13.89,13.89,0,0,1,0-7.24,13.24,13.24,0,0,1,1.37-3.26,13.51,13.51,0,0,1,4.87-4.9,14.61,14.61,0,0,1,3.25-1.37,13.57,13.57,0,0,1,3.62-.49,13.23,13.23,0,0,1,4,.6A13.68,13.68,0,0,1,262.61,451.25Z" transform="translate(0 0)"/><path class="cls-2" d="M269.63,450.11a.82.82,0,0,1,.19-.55.71.71,0,0,1,.59-.23h5.23a1,1,0,0,1,.57.21.66.66,0,0,1,.3.57V475q0,.78-.87.78h-5.23a.69.69,0,0,1-.78-.78Z" transform="translate(0 0)"/><path class="cls-2" d="M291.77,450a.53.53,0,0,1,.11-.23,1.75,1.75,0,0,1,.24-.23,1.52,1.52,0,0,1,.3-.17.89.89,0,0,1,.31-.06h4.55a.78.78,0,0,1,.52.18,3.1,3.1,0,0,1,.32.33l.44,1L307.91,475a.54.54,0,0,1-.06.58.84.84,0,0,1-.67.22h-5.11a1.13,1.13,0,0,1-.63-.15,1,1,0,0,1-.35-.5c-.24-.61-.47-1.21-.69-1.81s-.45-1.2-.68-1.81h-9.45c-.23.61-.45,1.21-.69,1.81s-.45,1.2-.68,1.81a.88.88,0,0,1-.91.65h-5.25a.87.87,0,0,1-.56-.17c-.15-.12-.17-.3-.08-.54Zm3.23,7.62c-.22.6-.45,1.25-.68,1.95l-.69,2.12c-.22.71-.45,1.42-.68,2.11s-.46,1.35-.69,1.95h5.47Z" transform="translate(0 0)"/><path class="cls-2" d="M312.85,450.09a.8.8,0,0,1,.22-.55.74.74,0,0,1,.59-.23h5.26a.85.85,0,0,1,.56.21.77.77,0,0,1,.26.57v19.36h9.79a.8.8,0,0,1,.55.22.74.74,0,0,1,.23.59v4.68a.83.83,0,0,1-.2.55.77.77,0,0,1-.58.26H313.64a.7.7,0,0,1-.79-.78Z" transform="translate(0 0)"/><path class="cls-2" d="M349.75,450.11a.82.82,0,0,1,.19-.55.71.71,0,0,1,.59-.23h5.23a1,1,0,0,1,.57.21.67.67,0,0,1,.31.57V475c0,.52-.3.78-.88.78h-5.23a.69.69,0,0,1-.78-.78Z" transform="translate(0 0)"/><path class="cls-2" d="M364.4,450.11a.82.82,0,0,1,.19-.55.71.71,0,0,1,.59-.23H371a1.22,1.22,0,0,1,.51.12,1.13,1.13,0,0,1,.47.43c1.5,2.43,3,4.83,4.48,7.19s3,4.76,4.5,7.19V450a.93.93,0,0,1,.29-.5.74.74,0,0,1,.5-.17h5.07a.91.91,0,0,1,.62.2.7.7,0,0,1,.25.58v24.95a.65.65,0,0,1-.21.53.94.94,0,0,1-.59.16h-5.68a.59.59,0,0,1-.41-.16,2.74,2.74,0,0,1-.37-.42l-4.68-7.74q-2.31-3.82-4.7-7.75V475a.68.68,0,0,1-.82.78h-5.05a.75.75,0,0,1-.6-.22.84.84,0,0,1-.18-.54Z" transform="translate(0 0)"/><path class="cls-2" d="M394.12,450.11a.72.72,0,0,1,.24-.57.87.87,0,0,1,.59-.21H414.1a.87.87,0,0,1,.57.19.82.82,0,0,1,.29.59v4.42a1,1,0,0,1-.23.61.74.74,0,0,1-.63.29H408v19.49a.84.84,0,0,1-.23.58.76.76,0,0,1-.6.25h-5.22a.85.85,0,0,1-.57-.24.74.74,0,0,1-.26-.59V455.43H395a.84.84,0,0,1-.59-.23.89.89,0,0,1-.24-.67Z" transform="translate(0 0)"/><path class="cls-2" d="M421.29,450.14a.84.84,0,0,1,.21-.59.72.72,0,0,1,.57-.22h17.66a.78.78,0,0,1,.61.23.88.88,0,0,1,.21.62v4.4a1,1,0,0,1-.21.58.76.76,0,0,1-.63.27H428.18v4.41h8.9a1,1,0,0,1,.56.16.62.62,0,0,1,.22.54v3.84a.72.72,0,0,1-.19.48.69.69,0,0,1-.57.23h-8.92v4.56h12a.72.72,0,0,1,.8.82v4.47a.47.47,0,0,1-.14.32c-.05.33-.29.49-.73.49h-18a.84.84,0,0,1-.56-.18.72.72,0,0,1-.22-.58Z" transform="translate(0 0)"/><path class="cls-2" d="M446.76,450.09a.79.79,0,0,1,.21-.55.75.75,0,0,1,.59-.23h5.27a.84.84,0,0,1,.55.21.74.74,0,0,1,.27.57v19.36h9.79a.82.82,0,0,1,.55.22.78.78,0,0,1,.23.59v4.68a.89.89,0,0,1-.2.55.77.77,0,0,1-.58.26h-15.9a.69.69,0,0,1-.78-.78Z" transform="translate(0 0)"/><path class="cls-2" d="M469.77,450.09a.75.75,0,0,1,.22-.55.72.72,0,0,1,.58-.23h5.27a.82.82,0,0,1,.55.21.74.74,0,0,1,.27.57v19.36h9.79a.8.8,0,0,1,.55.22.78.78,0,0,1,.23.59v4.68a.89.89,0,0,1-.2.55.77.77,0,0,1-.58.26H470.56a.69.69,0,0,1-.79-.78Z" transform="translate(0 0)"/><path class="cls-2" d="M493.48,450.11a.82.82,0,0,1,.19-.55.71.71,0,0,1,.59-.23h5.23a1,1,0,0,1,.57.21.65.65,0,0,1,.31.57V475c0,.52-.29.78-.88.78h-5.23a.69.69,0,0,1-.78-.78Z" transform="translate(0 0)"/><path class="cls-2" d="M524.73,456.78a7.56,7.56,0,0,0-1.94-1,6.65,6.65,0,0,0-2.21-.36,6.43,6.43,0,0,0-4.81,2.08,7,7,0,0,0-1.38,2.25,7.63,7.63,0,0,0-.5,2.75,7.49,7.49,0,0,0,.5,2.74,6.91,6.91,0,0,0,1.38,2.24,6.45,6.45,0,0,0,4.81,2.05,8.52,8.52,0,0,0,1.24-.09c.41-.05.85-.13,1.31-.23v-4.66a.81.81,0,0,1,.19-.56.74.74,0,0,1,.59-.22h4.84a1,1,0,0,1,.57.21.66.66,0,0,1,.3.57v8.61a.9.9,0,0,1-.51.79,10.47,10.47,0,0,1-1.85,1,15.88,15.88,0,0,1-2.12.67,19,19,0,0,1-2.23.4,18.71,18.71,0,0,1-2.2.14,13.48,13.48,0,0,1-6.87-1.85,14,14,0,0,1-2.75-2.13,13.72,13.72,0,0,1-2.13-2.74,13.32,13.32,0,0,1-1.37-3.24,13.67,13.67,0,0,1,1.37-10.5,13.64,13.64,0,0,1,4.88-4.9,14.42,14.42,0,0,1,3.25-1.37,13.46,13.46,0,0,1,3.62-.49,13.27,13.27,0,0,1,4,.6,14,14,0,0,1,3.57,1.72,1.22,1.22,0,0,1,.46.47.64.64,0,0,1-.07.67l-2.88,4.16a1.21,1.21,0,0,1-.47.38C525.2,457,525,457,524.73,456.78Z" transform="translate(0 0)"/><path class="cls-2" d="M536.78,450.14a.88.88,0,0,1,.2-.59.75.75,0,0,1,.58-.22h17.66a.75.75,0,0,1,.6.23.88.88,0,0,1,.22.62v4.4a1,1,0,0,1-.22.58.74.74,0,0,1-.62.27H543.67v4.41h8.89a1,1,0,0,1,.57.16.65.65,0,0,1,.22.54v3.84a.73.73,0,0,1-.2.48.69.69,0,0,1-.57.23h-8.91v4.56h12a.72.72,0,0,1,.8.82v4.47a.44.44,0,0,1-.15.32c0,.33-.29.49-.73.49h-18a.85.85,0,0,1-.57-.18.75.75,0,0,1-.21-.58Z" transform="translate(0 0)"/><path class="cls-2" d="M562.94,450.11a.83.83,0,0,1,.2-.55.69.69,0,0,1,.58-.23h5.82a1.27,1.27,0,0,1,.52.12,1.1,1.1,0,0,1,.46.43c1.51,2.43,3,4.83,4.49,7.19l4.5,7.19V450a.91.91,0,0,1,.28-.5.76.76,0,0,1,.5-.17h5.08a.94.94,0,0,1,.62.2.73.73,0,0,1,.25.58v24.95a.63.63,0,0,1-.22.53.91.91,0,0,1-.58.16h-5.68a.57.57,0,0,1-.41-.16,2.29,2.29,0,0,1-.37-.42l-4.69-7.74q-2.31-3.82-4.69-7.75V475a.68.68,0,0,1-.82.78h-5.06a.71.71,0,0,1-.59-.22.79.79,0,0,1-.19-.54Z" transform="translate(0 0)"/><path class="cls-2" d="M614.27,451.25a1.08,1.08,0,0,1,.44.46.73.73,0,0,1-.05.68l-3,4.27a.66.66,0,0,1-.42.34.72.72,0,0,1-.54-.15,7,7,0,0,0-1.92-1,6.81,6.81,0,0,0-2.23-.36,6.43,6.43,0,0,0-2.68.56,6.31,6.31,0,0,0-2.12,1.51,7,7,0,0,0-1.39,2.24,7.53,7.53,0,0,0-.5,2.74,7.44,7.44,0,0,0,.5,2.73,7,7,0,0,0,1.39,2.23,6.58,6.58,0,0,0,2.12,1.5,6.43,6.43,0,0,0,2.68.55,7,7,0,0,0,2.25-.36,7.19,7.19,0,0,0,1.94-1,.78.78,0,0,1,.53-.16.74.74,0,0,1,.43.32l3,4.37a.69.69,0,0,1,0,.66,1.12,1.12,0,0,1-.44.45,14.57,14.57,0,0,1-3.6,1.73,13.77,13.77,0,0,1-7.69.14,13.56,13.56,0,0,1-3.25-1.37,14,14,0,0,1-2.75-2.13,14.1,14.1,0,0,1-2.13-2.74,13.32,13.32,0,0,1-1.37-3.24,13.67,13.67,0,0,1,1.37-10.5,13.71,13.71,0,0,1,2.13-2.77,13.23,13.23,0,0,1,2.75-2.13,14.42,14.42,0,0,1,3.25-1.37,13.46,13.46,0,0,1,3.62-.49,13.27,13.27,0,0,1,4,.6A14,14,0,0,1,614.27,451.25Z" transform="translate(0 0)"/><path class="cls-2" d="M621.21,450.14a.88.88,0,0,1,.2-.59.75.75,0,0,1,.58-.22h17.66a.75.75,0,0,1,.6.23.88.88,0,0,1,.22.62v4.4a1,1,0,0,1-.22.58.74.74,0,0,1-.62.27H628.1v4.41H637a1,1,0,0,1,.56.16.65.65,0,0,1,.22.54v3.84a.73.73,0,0,1-.2.48.69.69,0,0,1-.57.23H628.1v4.56h12a.72.72,0,0,1,.8.82v4.47a.44.44,0,0,1-.15.32c0,.33-.29.49-.72.49H622a.85.85,0,0,1-.57-.18.75.75,0,0,1-.21-.58Z" transform="translate(0 0)"/><path class="cls-3" d="M662.25,450.16a.82.82,0,0,1,.19-.55.75.75,0,0,1,.59-.23h5.23a1,1,0,0,1,.57.21.67.67,0,0,1,.3.57V475q0,.78-.87.78H663a.69.69,0,0,1-.78-.78Z" transform="translate(0 0)"/><path class="cls-3" d="M676.89,450.16a.83.83,0,0,1,.2-.55.75.75,0,0,1,.59-.23h5.23a1,1,0,0,1,.57.21.67.67,0,0,1,.3.57V475q0,.78-.87.78h-5.23a.69.69,0,0,1-.79-.78Z" transform="translate(0 0)"/><path class="cls-3" d="M690.06,450.16a.72.72,0,0,1,.24-.57.88.88,0,0,1,.6-.21h19.15a.91.91,0,0,1,.57.19.79.79,0,0,1,.28.59v4.42a1,1,0,0,1-.22.61.73.73,0,0,1-.63.29h-6.14V475a.85.85,0,0,1-.23.58.78.78,0,0,1-.6.26h-5.22a.85.85,0,0,1-.57-.24.77.77,0,0,1-.27-.6V455.48H690.9a.81.81,0,0,1-.6-.23.87.87,0,0,1-.24-.67Z" transform="translate(0 0)"/><path class="cls-3" d="M731.91,450.16a.92.92,0,0,1,.24-.55.82.82,0,0,1,.61-.23h6.16a.82.82,0,0,1,.85.68l4.84,16.16,4.88-16.16a.91.91,0,0,1,.91-.68h6.08a.84.84,0,0,1,.58.22.89.89,0,0,1,.3.56q.61,6.27,1.27,12.43T759.9,475v.08c0,.47-.26.7-.78.7h-5a.74.74,0,0,1-.85-.78l-1.55-13.76-4,13.84a1,1,0,0,1-.25.43.61.61,0,0,1-.44.25H742.3a.69.69,0,0,1-.46-.24.72.72,0,0,1-.25-.44l-4-13.81L736,475q0,.78-.87.78h-5a.69.69,0,0,1-.77-.78Z" transform="translate(0 0)"/><path class="cls-3" d="M774.21,450.07a.47.47,0,0,1,.12-.23,1.06,1.06,0,0,1,.24-.23,1.11,1.11,0,0,1,.3-.17.84.84,0,0,1,.3-.06h4.56a.72.72,0,0,1,.51.19,1.61,1.61,0,0,1,.32.33l.45,1,9.34,24.1a.52.52,0,0,1-.05.58.91.91,0,0,1-.68.22h-5.11a1.13,1.13,0,0,1-.63-.15.94.94,0,0,1-.34-.51c-.24-.61-.47-1.21-.7-1.81l-.67-1.8h-9.46c-.22.6-.45,1.21-.68,1.8l-.69,1.81a.88.88,0,0,1-.9.66h-5.25a.84.84,0,0,1-.56-.18.41.41,0,0,1-.08-.53Zm3.24,7.62c-.23.61-.45,1.26-.69,2s-.46,1.4-.68,2.12l-.69,2.11c-.23.69-.46,1.34-.68,1.94h5.46Z" transform="translate(0 0)"/><path class="cls-3" d="M818.81,462.62a13.19,13.19,0,0,1-.48,3.59,13,13,0,0,1-1.37,3.17,13.24,13.24,0,0,1-2.13,2.66,12.93,12.93,0,0,1-2.74,2,13.44,13.44,0,0,1-3.25,1.29,13.9,13.9,0,0,1-3.61.46h-8.77a1.15,1.15,0,0,1-.57-.14.64.64,0,0,1-.25-.61V450.2a.93.93,0,0,1,.2-.61.8.8,0,0,1,.62-.23h8.77a14.21,14.21,0,0,1,3.6.46,13.69,13.69,0,0,1,6,3.37,12.51,12.51,0,0,1,2.13,2.67,13.28,13.28,0,0,1,1.37,3.18A12.84,12.84,0,0,1,818.81,462.62Zm-16.29-6.87v13.69H804c.27,0,.54,0,.8,0l.78-.06a7.27,7.27,0,0,0,2.5-.65,6.92,6.92,0,0,0,2-1.43,6.4,6.4,0,0,0,1.35-2.07,6.88,6.88,0,0,0,.49-2.6,6.76,6.76,0,0,0-.56-2.75,7,7,0,0,0-1.52-2.17,7,7,0,0,0-2.26-1.42,7.39,7.39,0,0,0-2.75-.51Z" transform="translate(0 0)"/><path class="cls-3" d="M825.55,450.2a.89.89,0,0,1,.2-.6.74.74,0,0,1,.59-.22h11.49a8.76,8.76,0,0,1,3.44.68,9,9,0,0,1,2.79,1.86,8.73,8.73,0,0,1,1.88,2.75,8.28,8.28,0,0,1,.69,3.36,7.9,7.9,0,0,1-.33,2.3,8.67,8.67,0,0,1-2.32,3.78,9.06,9.06,0,0,1-1.77,1.32l4.58,8.62c.08.16.19.36.32.58a1.25,1.25,0,0,1,.19.59.54.54,0,0,1-.18.44.81.81,0,0,1-.51.15H840.5a.88.88,0,0,1-.54-.18.83.83,0,0,1-.31-.48L835.33,467h-2.89v8c0,.51-.27.77-.82.77h-5.28a.8.8,0,0,1-.57-.19.74.74,0,0,1-.22-.58Zm13.94,7.9a3.11,3.11,0,0,0-.2-1.07,3.52,3.52,0,0,0-.55-1,3.36,3.36,0,0,0-.85-.74,2.79,2.79,0,0,0-1.11-.4l-.93-.06c-.29,0-.61,0-1,0h-2.46v6.53h3.28l.57,0,.55,0a2.8,2.8,0,0,0,1.12-.37,3,3,0,0,0,.84-.73,3.38,3.38,0,0,0,.51-1A3.49,3.49,0,0,0,839.49,458.1Z" transform="translate(0 0)"/><path class="cls-3" d="M860.12,450.07a.53.53,0,0,1,.11-.23,1.75,1.75,0,0,1,.24-.23,1.34,1.34,0,0,1,.31-.17.8.8,0,0,1,.3-.06h4.55a.73.73,0,0,1,.52.19,1.93,1.93,0,0,1,.32.33l.45,1,9.34,24.1a.54.54,0,0,1,0,.58.91.91,0,0,1-.68.22h-5.11a1.13,1.13,0,0,1-.63-.15,1,1,0,0,1-.35-.51c-.23-.61-.47-1.21-.69-1.81s-.45-1.2-.68-1.8h-9.45c-.22.6-.45,1.21-.68,1.8l-.69,1.81a.89.89,0,0,1-.91.66h-5.25a.87.87,0,0,1-.56-.18.42.42,0,0,1-.08-.53Zm3.24,7.62c-.23.61-.46,1.26-.69,2s-.46,1.4-.68,2.12l-.69,2.11c-.23.69-.46,1.34-.68,1.94h5.46Z" transform="translate(0 0)"/><path class="cls-3" d="M884,467.27c.2.16.46.38.77.66a9.85,9.85,0,0,0,1.08.83,8.83,8.83,0,0,0,1.79.94,5.58,5.58,0,0,0,3.4.14,2.66,2.66,0,0,0,1-.55,1.9,1.9,0,0,0,.5-.78,2.89,2.89,0,0,0,.15-.94,1.42,1.42,0,0,0-.41-1,4.4,4.4,0,0,0-1-.77,8,8,0,0,0-1.26-.58l-1.14-.4a26.05,26.05,0,0,1-3.74-1.61,11.17,11.17,0,0,1-2.67-1.92,6.9,6.9,0,0,1-2.13-5.16,6.75,6.75,0,0,1,.66-3,6.62,6.62,0,0,1,1.91-2.31,9.06,9.06,0,0,1,3-1.49,13.49,13.49,0,0,1,3.9-.52,13.09,13.09,0,0,1,3.1.36,12.28,12.28,0,0,1,2.93,1.17c.4.24.79.48,1.15.74a10.18,10.18,0,0,1,.95.74,4.46,4.46,0,0,1,.65.67,1,1,0,0,1,.24.56.79.79,0,0,1-.12.42,2.65,2.65,0,0,1-.34.45l-2.73,2.9a.86.86,0,0,1-.6.3.77.77,0,0,1-.45-.14,5.42,5.42,0,0,1-.46-.36l-.16-.14c-.24-.2-.5-.41-.79-.62a6.31,6.31,0,0,0-.93-.58,6.81,6.81,0,0,0-1-.43,4,4,0,0,0-1.13-.17,6.33,6.33,0,0,0-1.1.1,3.36,3.36,0,0,0-.91.31,1.68,1.68,0,0,0-.62.56,1.54,1.54,0,0,0-.23.85,1.45,1.45,0,0,0,.25.86,2.4,2.4,0,0,0,.75.68,7.09,7.09,0,0,0,1.23.59c.49.18,1.07.38,1.72.59,1.26.42,2.42.85,3.48,1.31a12,12,0,0,1,2.75,1.62,6.82,6.82,0,0,1,1.81,2.23,7.05,7.05,0,0,1,.64,3.15,7.69,7.69,0,0,1-.8,3.55,8,8,0,0,1-2.19,2.72,10.52,10.52,0,0,1-3.29,1.73,13,13,0,0,1-4,.62,11.71,11.71,0,0,1-4-.73,15.72,15.72,0,0,1-3.68-2,8,8,0,0,1-1.2-1l-.78-.8-.05-.05a.07.07,0,0,0,0-.05l0,0a.11.11,0,0,0,0-.05l0,0a1.18,1.18,0,0,1-.41-.71,1,1,0,0,1,.41-.68l3.08-2.93a1.16,1.16,0,0,1,.6-.27.59.59,0,0,1,.34.11A2.75,2.75,0,0,1,884,467.27Z" transform="translate(0 0)"/><line class="cls-4" x1="810.06" y1="181.92" x2="819.52" y2="152.81"/><line class="cls-5" x1="764.36" y1="161.11" x2="775.57" y2="186.72"/><line class="cls-6" x1="733.22" y1="199.97" x2="757.09" y2="208.55"/><line class="cls-7" x1="746.02" y1="236.93" x2="760.28" y2="231.11"/><line class="cls-8" x1="838.59" y1="209.72" x2="871.04" y2="194.15"/><line class="cls-9" x1="844.26" y1="247.7" x2="883.84" y2="257.16"/><line class="cls-10" x1="822.14" y1="286.27" x2="849.79" y2="325.13"/><line class="cls-11" x1="776.15" y1="359.33" x2="778.19" y2="304.17"/><line class="cls-12" x1="684.9" y1="338.22" x2="723.18" y2="288.6"/><line class="cls-13" x1="617.66" y1="247.41" x2="687.37" y2="233.15"/><line class="cls-14" x1="636" y1="123.85" x2="698.14" y2="160.23"/><line class="cls-15" x1="730.89" y1="39.15" x2="755.92" y2="112.79"/><line class="cls-16" x1="743.55" y1="176.97" x2="763.34" y2="196.33"/><line class="cls-17" x1="791.72" y1="149.76" x2="792.74" y2="179.45"/><line class="cls-18" x1="827.67" y1="192.25" x2="848.19" y2="168.24"/><line class="cls-19" x1="845.72" y1="228.64" x2="881.08" y2="225"/><line class="cls-20" x1="837.13" y1="268.22" x2="873.8" y2="293.25"/><line class="cls-21" x1="802.05" y1="299.37" x2="816.75" y2="348.99"/><line class="cls-22" x1="730.89" y1="357.15" x2="750.24" y2="301.11"/><line class="cls-23" x1="647.79" y1="303" x2="701.64" y2="265.46"/><line class="cls-24" x1="615.77" y1="184.98" x2="685.19" y2="196.33"/><line class="cls-25" x1="674.13" y1="70.15" x2="720.55" y2="130.84"/><line class="cls-26" x1="794.34" y1="28.38" x2="794.34" y2="104.35"/><line class="cls-27" x1="735.4" y1="221.65" x2="757.81" y2="221.5"/><line class="cls-28" x1="769.6" y1="254.11" x2="774.4" y2="244.5"/><line class="cls-29" x1="757.23" y1="247.7" x2="767.42" y2="238.24"/><line class="cls-30" x1="787.94" y1="106.53" x2="734.82" y2="37.11"/><line class="cls-31" x1="726.38" y1="39.88" x2="726.38" y2="128.95"/><line class="cls-31" x1="716.92" y1="136.51" x2="637.45" y2="120.07"/><line class="cls-31" x1="633.23" y1="127.05" x2="688.1" y2="191.09"/><line class="cls-31" x1="686.35" y1="202.29" x2="616.35" y2="243.77"/><line class="cls-31" x1="617.95" y1="251.05" x2="700.18" y2="259.93"/><line class="cls-31" x1="705.71" y1="268.51" x2="681.84" y2="336.48"/><line class="cls-31" x1="687.08" y1="340.55" x2="746.6" y2="298.35"/><line class="cls-31" x1="754.9" y1="301.11" x2="772.95" y2="359.76"/><line class="cls-32" x1="852.12" y1="323.82" x2="834.07" y2="270.55"/><line class="cls-33" x1="838.15" y1="264.15" x2="883.7" y2="259.78"/><line class="cls-33" x1="884.72" y1="254.98" x2="844.99" y2="231.98"/><line class="cls-33" x1="844.11" y1="225.29" x2="872.49" y2="196.18"/><line class="cls-34" x1="870.31" y1="191.67" x2="829.41" y2="195.45"/><line class="cls-34" x1="824.18" y1="191.09" x2="821.85" y2="153.1"/><line class="cls-34" x1="817.63" y1="151.79" x2="795.5" y2="180.32"/><line class="cls-34" x1="789.68" y1="180.9" x2="766.11" y2="159.65"/><line class="cls-35" x1="762.61" y1="161.54" x2="765.52" y2="195.31"/><line class="cls-35" x1="762.32" y1="198.8" x2="733.51" y2="198.51"/><line class="cls-36" x1="746.17" y1="237.95" x2="766.84" y2="236.93"/><line class="cls-36" x1="769.02" y1="238.97" x2="768.44" y2="253.81"/><line class="cls-32" x1="778.91" y1="359.76" x2="797.98" y2="299.37"/><line class="cls-32" x1="805.69" y1="296.75" x2="847.6" y2="327.16"/><line class="cls-36" x1="745.3" y1="235.77" x2="758.68" y2="223.4"/><line class="cls-35" x1="732.63" y1="200.98" x2="758.4" y2="219.76"/><path class="cls-3" d="M809.48,216.41a15.29,15.29,0,1,1-15.28-15.28,15.47,15.47,0,0,1,15.28,15.28" transform="translate(0 0)"/><path class="cls-3" d="M808.46,14.26A14.27,14.27,0,1,1,794.2,0a14.29,14.29,0,0,1,14.26,14.26" transform="translate(0 0)"/><path class="cls-3" d="M805,114.83a10.59,10.59,0,0,1-10.63,10.62A10.55,10.55,0,1,1,805,114.83" transform="translate(0 0)"/><path class="cls-3" d="M735.84,138.11a9.61,9.61,0,1,1-9.9-9.31,9.71,9.71,0,0,1,9.9,9.31" transform="translate(0 0)"/><path class="cls-3" d="M702.8,196.62a8.89,8.89,0,1,1-10-7.57,8.77,8.77,0,0,1,10,7.57" transform="translate(0 0)"/><path class="cls-3" d="M716.19,263.13a8.2,8.2,0,1,1-5.53-10.19,7.94,7.94,0,0,1,5.53,10.19" transform="translate(0 0)"/><path class="cls-3" d="M760.28,294.42a7.58,7.58,0,1,1-7.12-8,7.53,7.53,0,0,1,7.12,8" transform="translate(0 0)"/><path class="cls-3" d="M807,293.54a6.9,6.9,0,1,1-6-7.71,7.08,7.08,0,0,1,6,7.71" transform="translate(0 0)"/><path class="cls-3" d="M838.29,264.58a6.26,6.26,0,1,1-6.26-6.26,6.4,6.4,0,0,1,6.26,6.26" transform="translate(0 0)"/><path class="cls-3" d="M845.72,230.09a5.41,5.41,0,0,1-6.41,4.51,5.47,5.47,0,0,1-4.51-6.4,5.4,5.4,0,0,1,6.4-4.51,5.79,5.79,0,0,1,4.52,6.4" transform="translate(0 0)"/><path class="cls-3" d="M829.13,197.35a4.88,4.88,0,0,1-9.32-2.92,4.8,4.8,0,0,1,6.11-3.2,4.87,4.87,0,0,1,3.21,6.12" transform="translate(0 0)"/><path class="cls-3" d="M797.1,183.81a4.15,4.15,0,1,1-3.92-4.36,4.29,4.29,0,0,1,3.92,4.36" transform="translate(0 0)"/><path class="cls-3" d="M769.31,199.38a3.52,3.52,0,1,1-3.06-3.93,3.32,3.32,0,0,1,3.06,3.93" transform="translate(0 0)"/><path class="cls-3" d="M763.49,222.09a2.83,2.83,0,1,1-2.19-3.35,2.65,2.65,0,0,1,2.19,3.35" transform="translate(0 0)"/><path class="cls-3" d="M679.22,59.23a13.25,13.25,0,1,1-13.68-12.8,13.1,13.1,0,0,1,13.68,12.8" transform="translate(0 0)"/><path class="cls-3" d="M615.77,181.34A12.33,12.33,0,1,1,602,170.71a12.29,12.29,0,0,1,13.82,10.63" transform="translate(0 0)"/><path class="cls-3" d="M649.24,312.9a11.42,11.42,0,1,1-7.56-14.26,11.3,11.3,0,0,1,7.56,14.26" transform="translate(0 0)"/><path class="cls-3" d="M737.88,367.62a10.5,10.5,0,1,1-9.9-11.06,10.47,10.47,0,0,1,9.9,11.06" transform="translate(0 0)"/><path class="cls-3" d="M829,359.33a9.53,9.53,0,1,1-8.3-10.63,9.61,9.61,0,0,1,8.3,10.63" transform="translate(0 0)"/><path class="cls-3" d="M889.52,298.05a8.59,8.59,0,1,1-8.59-8.58,8.51,8.51,0,0,1,8.59,8.58" transform="translate(0 0)"/><path class="cls-3" d="M896.22,225.58A7.68,7.68,0,1,1,890,216.7a7.63,7.63,0,0,1,6.26,8.88" transform="translate(0 0)"/><path class="cls-3" d="M859.1,165.18a6.72,6.72,0,1,1-4.36-8.44,6.75,6.75,0,0,1,4.36,8.44" transform="translate(0 0)"/><path class="cls-3" d="M797.4,144.37a5.83,5.83,0,1,1-5.53-6.11,5.85,5.85,0,0,1,5.53,6.11" transform="translate(0 0)"/><path class="cls-3" d="M745,174.35a4.92,4.92,0,1,1-4.22-5.53,4.93,4.93,0,0,1,4.22,5.53" transform="translate(0 0)"/><path class="cls-3" d="M735.25,222.38a3.94,3.94,0,1,1-3-4.66,3.93,3.93,0,0,1,3,4.66" transform="translate(0 0)"/><path class="cls-2" d="M769,121.67a9.9,9.9,0,1,1-10.34-9.46A10.11,10.11,0,0,1,769,121.67" transform="translate(0 0)"/><path class="cls-2" d="M715.32,163.87a9.23,9.23,0,1,1-10.19-8.15,9.3,9.3,0,0,1,10.19,8.15" transform="translate(0 0)"/><path class="cls-2" d="M704.11,233.44a8.54,8.54,0,1,1-6.26-10.33,8.44,8.44,0,0,1,6.26,10.33" transform="translate(0 0)"/><path class="cls-2" d="M735.84,282.63a7.87,7.87,0,1,1-7.57-8.15,7.84,7.84,0,0,1,7.57,8.15" transform="translate(0 0)"/><path class="cls-2" d="M785.61,297.33a7.21,7.21,0,1,1-6.84-7.57,7.29,7.29,0,0,1,6.84,7.57" transform="translate(0 0)"/><path class="cls-2" d="M824.9,280.88a6.55,6.55,0,1,1-6.69-6.4,6.43,6.43,0,0,1,6.69,6.4" transform="translate(0 0)"/><path class="cls-2" d="M844.41,246.39a5.83,5.83,0,1,1-5.82-5.82,5.67,5.67,0,0,1,5.82,5.82" transform="translate(0 0)"/><path class="cls-2" d="M839,212.77a5.23,5.23,0,1,1-4.36-6,5.27,5.27,0,0,1,4.36,6" transform="translate(0 0)"/><path class="cls-2" d="M813.26,186.72a4.53,4.53,0,1,1-4.07-4.95,4.55,4.55,0,0,1,4.07,4.95" transform="translate(0 0)"/><path class="cls-2" d="M781,189.63a3.91,3.91,0,1,1-4.51-3.2,3.76,3.76,0,0,1,4.51,3.2" transform="translate(0 0)"/><path class="cls-2" d="M763.34,210a3.23,3.23,0,1,1-2.76-3.64,3.28,3.28,0,0,1,2.76,3.64" transform="translate(0 0)"/><path class="cls-2" d="M765.09,229.8a2.49,2.49,0,1,1-2.77-2.18,2.57,2.57,0,0,1,2.77,2.18" transform="translate(0 0)"/><path class="cls-2" d="M740.2,25.61a13.69,13.69,0,1,1-14.26-13.09A13.67,13.67,0,0,1,740.2,25.61" transform="translate(0 0)"/><path class="cls-2" d="M637.6,116a12.81,12.81,0,1,1-14.12-11.35A12.88,12.88,0,0,1,637.6,116" transform="translate(0 0)"/><path class="cls-2" d="M617.66,252.5a11.82,11.82,0,1,1-8.73-14.26,11.79,11.79,0,0,1,8.73,14.26" transform="translate(0 0)"/><path class="cls-2" d="M689.12,347.25a10.92,10.92,0,1,1-10.48-11.36,11,11,0,0,1,10.48,11.36" transform="translate(0 0)"/><path class="cls-2" d="M785.9,369.8a10,10,0,1,1-9.46-10.47,10.14,10.14,0,0,1,9.46,10.47" transform="translate(0 0)"/><path class="cls-2" d="M864.05,332.4a9,9,0,1,1-9.17-8.88,8.89,8.89,0,0,1,9.17,8.88" transform="translate(0 0)"/><path class="cls-2" d="M900,259.05a8.15,8.15,0,1,1-8.15-8.15,8.13,8.13,0,0,1,8.15,8.15" transform="translate(0 0)"/><path class="cls-2" d="M884.57,192.11a7.2,7.2,0,1,1-6.11-8.15,7,7,0,0,1,6.11,8.15" transform="translate(0 0)"/><path class="cls-2" d="M827.81,147.43a6.28,6.28,0,1,1-5.67-6.84,6.32,6.32,0,0,1,5.67,6.84" transform="translate(0 0)"/><path class="cls-2" d="M767.42,155.29a5.31,5.31,0,1,1-6.12-4.37,5.31,5.31,0,0,1,6.12,4.37" transform="translate(0 0)"/><path class="cls-2" d="M733.51,199.09a4.4,4.4,0,1,1-3.79-5,4.34,4.34,0,0,1,3.79,5" transform="translate(0 0)"/><path class="cls-2" d="M746.17,237.8a3.44,3.44,0,1,1-3.78-3.05,3.34,3.34,0,0,1,3.78,3.05" transform="translate(0 0)"/><path class="cls-2" d="M777.17,242.61a1.83,1.83,0,1,1-2-1.6,1.81,1.81,0,0,1,2,1.6" transform="translate(0 0)"/><path class="cls-2" d="M770.91,256.14a2.55,2.55,0,1,1-2.76-2.33,2.58,2.58,0,0,1,2.76,2.33" transform="translate(0 0)"/><path class="cls-3" d="M771.2,237.22a2.22,2.22,0,1,1-1.75-2.62,2.16,2.16,0,0,1,1.75,2.62" transform="translate(0 0)"/><path class="cls-3" d="M758,250.46a3.05,3.05,0,1,1-2.33-3.63,3,3,0,0,1,2.33,3.63" transform="translate(0 0)"/></svg>